<svg xmlns="http://www.w3.org/2000/svg" width="20" height="17" viewBox="0 0 20 17" fill="none"><path d="M17.0924 8.3751L9.87501 15.8752L2.65757 8.3751C2.21617 7.91037 1.88057 7.35562 1.6738 6.74894C1.46702 6.14226 1.39398 5.49803 1.45968 4.86046C1.52538 4.22289 1.72827 3.60709 2.05441 3.05533C2.38056 2.50357 2.82224 2.02891 3.34913 1.66396C3.87602 1.299 4.47565 1.05238 5.10685 0.941028C5.73805 0.829676 6.38587 0.85623 7.00584 1.01887C7.62581 1.1815 8.20324 1.47637 8.6985 1.88322C9.19376 2.29008 9.59511 2.79928 9.87501 3.37588C10.1549 2.79928 10.5563 2.29008 11.0515 1.88322C11.5468 1.47637 12.1242 1.1815 12.7442 1.01887C13.3641 0.85623 14.012 0.829676 14.6432 0.941028C15.2744 1.05238 15.874 1.299 16.4009 1.66396C16.9278 2.02891 17.3695 2.50357 17.6956 3.05533C18.0217 3.60709 18.2246 4.22289 18.2903 4.86046C18.356 5.49803 18.283 6.14226 18.0762 6.74894C17.8694 7.35562 17.5338 7.91037 17.0924 8.3751Z" stroke="currentColor" stroke-width="1.5" stroke-linecap="round" stroke-linejoin="round"></path></svg>